<svg width="24" height="24" fill="none" xmlns="http://www.w3.org/2000/svg"><path d="M15.888 11.404l-5.625-3.516a.703.703 0 00-1.076.596v7.032a.703.703 0 001.076.596l5.625-3.516a.703.703 0 000-1.192zm-5.294 2.843V9.753L14.189 12l-3.595 2.247z" fill="#A7A7A7"/><path d="M20.484 2.86H3.516A3.52 3.52 0 000 6.374v11.25a3.52 3.52 0 003.516 3.516h16.968A3.52 3.52 0 0024 17.625V6.375a3.52 3.52 0 00-3.516-3.516zm2.11 14.765c0 1.163-.947 2.11-2.11 2.11H3.516a2.112 2.112 0 01-2.11-2.11V6.375c0-1.163.947-2.11 2.11-2.11h16.968c1.163 0 2.11.947 2.11 2.11v11.25z" fill="#A7A7A7"/></svg>