<svg width="25" height="26" fill="none" xmlns="http://www.w3.org/2000/svg"><g clip-path="url(#clip0_1_612)"><path d="M25 5.229c-1.573.075-1.538.069-1.716.084l.931-2.766s-2.907 1.112-3.644 1.311c-1.935-1.809-4.813-1.889-6.87-.574-1.684 1.077-2.588 2.926-2.286 5.088-3.278-.473-6.04-2.09-8.221-4.814l-.69-.861-.515.984a6.156 6.156 0 00-.61 4.004c.107.55.287 1.073.537 1.563l-.592-.238-.07 1.028c-.071 1.044.263 2.264.894 3.26.178.282.407.59.697.895l-.306-.05.373 1.179c.49 1.548 1.51 2.745 2.831 3.41-1.32.584-2.386.955-4.14 1.555L0 20.835l1.481.842c.565.322 2.56 1.394 4.532 1.716 4.384.715 9.319.133 12.64-2.98 2.799-2.62 3.717-6.348 3.526-10.228-.028-.588.126-1.148.436-1.578.62-.862 2.381-3.373 2.385-3.378zm-3.556 2.465c-.515.714-.772 1.627-.726 2.569.192 3.913-.832 6.948-3.044 9.02-2.583 2.42-6.751 3.37-11.434 2.606-.848-.138-1.724-.448-2.45-.757 1.47-.526 2.605-.995 4.438-1.897l2.558-1.26-2.825-.187c-1.353-.09-2.48-.772-3.172-1.88a4.885 4.885 0 001.076-.186l2.694-.78-2.717-.692a4.059 4.059 0 01-2.471-1.788 4.396 4.396 0 01-.536-1.229c.272.076.59.13 1.102.183l2.515.258-1.993-1.616C3.024 8.894 2.45 7.144 2.87 5.463c4.48 4.832 9.74 4.47 10.27 4.597-.117-1.177-.12-1.18-.15-1.292-.678-2.493.808-3.759 1.478-4.187 1.4-.895 3.622-1.03 5.162.444.332.318.782.443 1.202.335.378-.098.688-.201.991-.314l-.631 1.877h.806l-.554.771z" fill="#F78CB6"/></g><defs><clipPath id="clip0_1_612"><path fill="#fff" d="M0 0h25v26H0z"/></clipPath></defs></svg>