<svg width="21" height="21" fill="none" xmlns="http://www.w3.org/2000/svg"><path d="M18.54 0H2.46A2.464 2.464 0 000 2.46v16.08A2.464 2.464 0 002.46 21h16.08A2.464 2.464 0 0021 18.54V2.46A2.464 2.464 0 0018.54 0zm.82 18.54c0 .451-.369.82-.82.82h-4.677v-6.686h2.535l.418-2.543h-2.953V8.367c0-.696.535-1.23 1.23-1.23h1.682V4.594h-1.681a3.773 3.773 0 00-3.773 3.78v1.757H8.86v2.543h2.462v6.685h-8.86a.821.821 0 01-.82-.82V2.461c0-.452.368-.82.82-.82H18.54c.452 0 .82.368.82.82v16.078z" fill="#A7A7A7"/></svg>