<svg width="22" height="22" fill="none" xmlns="http://www.w3.org/2000/svg"><path d="M16.045 0H5.955A5.962 5.962 0 000 5.955v10.09A5.962 5.962 0 005.955 22h10.09A5.962 5.962 0 0022 16.045V5.955A5.962 5.962 0 0016.045 0zm4.665 16.045a4.67 4.67 0 01-4.665 4.665H5.955a4.67 4.67 0 01-4.665-4.665V5.955A4.67 4.67 0 015.955 1.29h10.09a4.67 4.67 0 014.665 4.665v10.09z" fill="#A7A7A7"/><path d="M11 4.984A6.022 6.022 0 004.985 11 6.022 6.022 0 0011 17.015 6.022 6.022 0 0017.015 11 6.022 6.022 0 0011 4.984zm0 10.742A4.731 4.731 0 016.274 11 4.731 4.731 0 0111 6.274 4.731 4.731 0 0115.726 11 4.731 4.731 0 0111 15.726zm6.16-12.878a1.78 1.78 0 00-1.778 1.778c0 .98.797 1.777 1.777 1.777a1.78 1.78 0 001.778-1.777 1.78 1.78 0 00-1.778-1.778zm0 2.265a.488.488 0 110-.976.488.488 0 010 .976z" fill="#A7A7A7"/></svg>