<svg width="44" height="32" fill="none" xmlns="http://www.w3.org/2000/svg"><rect x="12.75" y=".75" width="30.5" height="30.5" rx="1.25" fill="#FFC1DA" fill-opacity=".28" stroke="#fff" stroke-width="1.5"/><path d="M1 15.158a1 1 0 100 2v-2zm29 1l.686.727a1 1 0 00-.039-1.49l-.647.763zm-7.936 6.115a1 1 0 001.372 1.454l-1.372-1.454zm1.333-13.035a1 1 0 00-1.294 1.524l1.294-1.524zM1 17.158h29v-2H1v2zm28.314-1.727l-7.25 6.842 1.372 1.454 7.25-6.842-1.372-1.454zm1.333-.035l-7.25-6.158-1.294 1.524 7.25 6.158 1.294-1.524z" fill="#fff"/></svg>