<svg width="28" height="28" fill="none" xmlns="http://www.w3.org/2000/svg"><path d="M0 13.544v-.04C.351 8.91 1.992 5.464 4.842 3.286 7.654 1.068 10.7 0 14.02 0c3.475-.04 6.716 1.149 9.606 3.525C26.556 5.86 28 9.346 28 13.86v.278c0 4.554-1.445 7.96-4.374 10.297-2.929 2.376-6.17 3.564-9.646 3.564h-.156c-3.397-.04-6.521-1.228-9.411-3.604C1.523 22.058.039 18.455 0 13.544zm13.16-6.218V1.068h-.937c-.195.238-.351.515-.508.753-.156.237-.312.475-.468.752a8.418 8.418 0 00-.469.792 4.541 4.541 0 00-.39.753c-.235.396-.43.792-.586 1.148a7.797 7.797 0 00-.469 1.03c.235.158.508.356.82.475.352.12.703.238 1.055.317.39.08.742.119 1.054.159.352.04.664.079.898.079zm1.64-6.258v6.218c.196 0 .43.04.664 0 .235 0 .508-.04.742-.08.43-.078.938-.197 1.328-.316.43-.158.82-.356 1.094-.594-.469-1.148-.977-2.06-1.484-2.93a11.348 11.348 0 00-1.719-2.258v-.04h-.624zm-4.217.357v-.04c-.273.119-.547.317-.86.436a9.328 9.328 0 00-.897.435c-.547.278-1.094.594-1.64.95-.508.357-1.016.753-1.445 1.15.156.158.351.316.507.435.156.119.352.277.547.436.156.079.351.198.547.356.195.119.43.277.664.436.312-.713.624-1.466 1.015-2.139.39-.713.82-1.386 1.25-1.98a.829.829 0 01.156-.238c.039-.04.078-.158.156-.237zm11.95 2.93v-.04c-.977-.752-1.836-1.385-2.695-1.781a61.145 61.145 0 00-2.5-1.11 8.113 8.113 0 011.524 2.179c.39.792.781 1.624 1.093 2.416.157-.08.352-.159.586-.317.195-.119.469-.238.703-.356.234-.159.43-.317.664-.476.234-.198.469-.356.625-.515zm-.664 8.832h4.49c0-1.465-.312-2.851-.897-4.277a10.362 10.362 0 00-2.304-3.525v-.04a2.865 2.865 0 01-.742.793c-.313.198-.586.356-.899.514-.195.12-.39.278-.585.357-.196.119-.469.198-.664.317.156.317.312.673.468.99.118.356.313.752.39 1.109.235.633.391 1.307.548 1.98.117.594.195 1.228.195 1.782zM7.732 7.326v-.04c-.312-.158-.664-.277-.937-.436a30.322 30.322 0 00-.781-.554 3.863 3.863 0 01-.664-.436c-.195-.158-.351-.316-.508-.475-1.015.99-1.757 2.1-2.226 3.406a16.52 16.52 0 00-1.015 4.357h4.803c0-1.11.157-2.179.43-3.248.234-1.109.586-1.94.898-2.574zm5.428 5.822V8.593a4.69 4.69 0 01-1.054 0c-.39-.04-.781-.158-1.133-.277-.312-.08-.702-.159-1.015-.277a3.616 3.616 0 01-.976-.396 6.4 6.4 0 00-.586 1.386c-.195.475-.312.99-.43 1.465-.078.475-.117.99-.156 1.426-.039.435-.078.871-.078 1.228h5.428zm1.64-4.476v4.476h5.78c0-.238 0-.515-.039-.832-.078-.277-.117-.634-.156-.95-.117-.476-.234-.99-.39-1.466-.157-.436-.313-.871-.508-1.228-.078-.198-.156-.435-.235-.594-.117-.198-.234-.317-.312-.435-.43.316-1.015.514-1.718.673-.664.158-1.445.317-2.148.356H14.8zm-8.396 5.782H1.601c0 .674.117 1.426.313 2.337.195.95.585 1.822 1.015 2.772.195.476.43.95.664 1.426.273.436.586.911.898 1.347.234-.159.469-.278.664-.396.234-.12.507-.278.742-.396.273-.12.547-.238.859-.396.273-.12.625-.278.976-.436-.312-.99-.664-1.94-.898-3.01-.273-1.03-.43-2.06-.43-3.208v-.04zm6.756 4.634v-4.634H7.732c0 .317.04.792.117 1.268.04.475.157.99.235 1.505.156.554.273 1.109.43 1.584.155.475.312.871.468 1.228a15.933 15.933 0 011.874-.595c.508-.158.977-.277 1.445-.316h.43c.156-.04.312-.04.43-.04zm1.64-4.634v4.595c.274.04.586.079.899.118.351.04.78.12 1.132.198l.586.12c.195.078.43.118.625.158.234.079.468.118.703.198.195.079.39.118.546.198.508-1.307.82-2.377 1.016-3.288.195-.87.273-1.623.273-2.257v-.04H14.8zm11.56.04v-.04h-4.491v.238c-.04.752-.156 1.624-.313 2.535-.156.871-.507 1.9-.976 3.168.625.317 1.21.634 1.68.95.468.317.898.674 1.21.99.664-.673 1.25-1.584 1.757-2.772.508-1.148.86-2.336 1.055-3.604.039-.237.039-.475.078-.713v-.752zm-13.2 12.04v-6.179c-.976.159-1.796.357-2.42.515-.626.159-1.094.317-1.407.476.235.594.469 1.108.703 1.584.235.435.508.91.742 1.307.078.158.235.317.352.515.117.158.195.356.312.514.117.198.234.436.352.674.156.198.273.435.43.594h.936zm1.64 0h.899a4.48 4.48 0 00.976-1.11c.312-.435.664-.95.898-1.385.274-.515.547-.99.781-1.466.235-.475.43-.91.586-1.227-.43-.159-1.015-.317-1.601-.476-.586-.158-1.406-.317-2.538-.475v6.139zm7.733-3.248v-.04a3.197 3.197 0 00-.86-.792 3.847 3.847 0 00-.585-.356c-.234-.119-.547-.277-.82-.436a82.9 82.9 0 01-.82 1.624c-.352.753-.977 1.663-1.758 2.654a7.205 7.205 0 002.617-.99c.859-.436 1.6-1.03 2.226-1.664zM8.006 22.02v-.04c-.274.159-.703.357-1.133.555-.469.198-.976.435-1.445.752.274.238.547.475.781.634.235.198.508.356.742.515.43.277.937.554 1.445.792.508.237 1.133.475 1.914.713-.274-.317-.469-.713-.664-1.03-.196-.317-.43-.634-.625-.95-.195-.317-.352-.674-.508-.99-.195-.317-.351-.634-.507-.951z" fill="#fff"/></svg>