<svg width="14" height="9" fill="none" xmlns="http://www.w3.org/2000/svg"><path fill-rule="evenodd" clip-rule="evenodd" d="M9.414.517a.562.562 0 01.399-.174.537.537 0 01.398.174l3.375 3.563a.597.597 0 01.165.42.624.624 0 01-.165.42L10.21 8.483a.549.549 0 01-.398.174.549.549 0 01-.399-.174.612.612 0 01-.165-.42c0-.158.06-.31.165-.42L12.392 4.5 9.414 1.358a.597.597 0 01-.165-.42.622.622 0 01.165-.42z" fill="#F78CB6"/><path fill-rule="evenodd" clip-rule="evenodd" d="M.25 4.5a.61.61 0 01.165-.42.548.548 0 01.398-.174h11.812a.55.55 0 01.398.174.61.61 0 01.165.42.61.61 0 01-.165.42.548.548 0 01-.398.174H.812a.548.548 0 01-.397-.174.61.61 0 01-.165-.42z" fill="#F78CB6"/></svg>