<svg width="14" height="9" fill="none" xmlns="http://www.w3.org/2000/svg"><path fill-rule="evenodd" clip-rule="evenodd" d="M4.586.517a.597.597 0 01.165.42.622.622 0 01-.165.421L1.608 4.5l2.978 3.142a.598.598 0 01.165.42.623.623 0 01-.165.421.562.562 0 01-.398.174.538.538 0 01-.399-.174L.414 4.921A.597.597 0 01.25 4.5a.623.623 0 01.165-.421L3.79.517a.562.562 0 01.399-.174.537.537 0 01.398.174z" fill="#56597A" fill-opacity=".6"/><path fill-rule="evenodd" clip-rule="evenodd" d="M.813 4.5a.61.61 0 01.164-.42.548.548 0 01.398-.174h11.813c.149 0 .292.063.397.174a.61.61 0 01.165.42.61.61 0 01-.165.42.548.548 0 01-.398.174H1.376a.548.548 0 01-.398-.174.61.61 0 01-.164-.42z" fill="#56597A" fill-opacity=".6"/></svg>